<?xml version="1.0" standalone="no"?>
<!DOCTYPE svg PUBLIC "-//W3C//DTD SVG 20010904//EN"
 "http://www.w3.org/TR/2001/REC-SVG-20010904/DTD/svg10.dtd">
<svg version="1.0" xmlns="http://www.w3.org/2000/svg"
 width="36.000000pt" height="26.000000pt" viewBox="0 0 36.000000 26.000000"
 preserveAspectRatio="xMidYMid meet">
<metadata>
Created by potrace 1.16, written by Peter Selinger 2001-2019
</metadata>
<g transform="translate(0.000000,26.000000) scale(0.004500,-0.003250)"
fill="#000000" stroke="none">
<path d="M3909 7027 c-103 -29 -172 -89 -217 -185 -68 -149 -16 -326 120 -411
l57 -36 1 -335 0 -336 -87 -12 c-175 -25 -326 -87 -413 -168 l-47 -44 -194 0
c-277 0 -476 -31 -699 -107 -285 -96 -534 -249 -754 -463 -213 -207 -363 -428
-471 -693 l-32 -79 -49 -3 c-148 -11 -264 -108 -353 -295 -71 -149 -84 -216
-85 -440 -1 -224 13 -298 85 -450 77 -163 172 -254 298 -286 l70 -18 11 -46
c6 -25 32 -94 56 -155 153 -374 411 -690 748 -916 243 -164 488 -262 796 -321
113 -21 136 -22 1165 -25 1113 -4 1194 -2 1410 42 404 82 820 317 1086 616
198 221 349 479 430 736 21 67 25 73 51 73 111 0 252 120 330 280 76 156 93
240 93 465 0 217 -15 292 -85 441 -87 186 -209 291 -349 299 l-56 3 -40 94
c-237 554 -670 958 -1228 1143 -236 79 -410 105 -696 105 l-184 0 -47 44 c-83
78 -224 136 -404 166 l-101 17 -3 335 -2 336 43 26 c142 83 199 264 132 415
-33 72 -103 142 -172 172 -60 26 -155 33 -214 16z m204 -47 c70 -33 114 -76
148 -145 29 -60 31 -70 27 -142 -5 -89 -28 -142 -85 -199 -108 -108 -292 -114
-407 -13 -183 161 -107 459 131 519 52 13 135 4 186 -20z m-23 -920 l0 -330
-92 0 -93 0 3 325 3 325 57 -6 c47 -4 73 -1 120 15 1 1 2 -147 2 -329z m153
-385 c166 -30 331 -103 384 -172 l25 -33 199 0 c351 0 586 -47 879 -174 278
-122 562 -343 752 -587 117 -150 235 -360 302 -540 l18 -46 62 0 c81 0 140
-27 211 -94 137 -130 215 -352 215 -613 0 -243 -67 -453 -188 -586 -63 -70
-154 -120 -218 -120 l-42 0 -37 -112 c-218 -670 -813 -1193 -1508 -1327 -205
-40 -299 -42 -1382 -38 -1140 4 -1099 2 -1341 67 -651 174 -1177 670 -1385
1308 l-33 102 -42 0 c-99 0 -226 102 -298 239 -240 460 -46 1171 320 1171 l61
0 33 88 c192 508 632 942 1154 1136 235 88 463 126 761 126 l194 0 48 48 c74
73 200 127 367 157 102 19 381 18 489 0z"/>
<path d="M2780 4409 c-373 -43 -694 -272 -861 -614 -175 -358 -135 -797 101
-1114 183 -246 440 -399 734 -440 52 -7 472 -11 1255 -11 992 0 1192 2 1263
15 413 72 738 351 866 745 82 251 64 547 -46 784 -61 128 -126 222 -221 317
-187 187 -401 289 -665 318 -116 13 -2313 13 -2426 0z m306 -767 c69 -35 127
-94 158 -161 16 -35 21 -65 21 -126 -1 -72 -4 -87 -35 -144 -122 -228 -434
-229 -559 -2 -32 59 -35 72 -35 145 0 96 21 151 84 220 94 102 243 130 366 68z
m2085 -2 c64 -33 123 -93 152 -159 16 -34 21 -66 21 -126 0 -72 -3 -86 -34
-144 -84 -156 -268 -215 -424 -136 -66 33 -104 73 -143 148 -36 69 -39 187 -6
259 76 168 271 239 434 158z"/>
</g>
</svg>
